<mxfile host="app.diagrams.net" agent="Mozilla/5.0 (Windows NT 10.0; Win64; x64; rv:139.0) Gecko/20100101 Firefox/139.0" version="27.1.4">
  <diagram name="Page-1" id="Vj2Z5JJyAk5oJ0i5jmaD">
    <mxGraphModel dx="1425" dy="843" grid="0" gridSize="10" guides="1" tooltips="1" connect="1" arrows="1" fold="1" page="0" pageScale="1" pageWidth="850" pageHeight="1100" math="0" shadow="0">
      <root>
        <mxCell id="0" />
        <mxCell id="1" parent="0" />
        <mxCell id="CB2LPCBiZO9Efgwe6hKB-1" value="COAP Kafka Request From Scheduler (Key : Correlation ID)." style="rounded=0;whiteSpace=wrap;html=1;" vertex="1" parent="1">
          <mxGeometry x="-145" y="52" width="120" height="60" as="geometry" />
        </mxCell>
        <mxCell id="CB2LPCBiZO9Efgwe6hKB-2" value="" style="endArrow=classic;html=1;rounded=0;fontSize=12;startSize=8;endSize=8;curved=1;" edge="1" parent="1">
          <mxGeometry width="50" height="50" relative="1" as="geometry">
            <mxPoint x="-24" y="83" as="sourcePoint" />
            <mxPoint x="95" y="83" as="targetPoint" />
          </mxGeometry>
        </mxCell>
        <mxCell id="CB2LPCBiZO9Efgwe6hKB-3" value="&lt;div&gt;1. Convert CoAP Kafka (JSON) to COAP Request.&lt;/div&gt;&lt;div&gt;&lt;br&gt;&lt;/div&gt;&lt;div&gt;CRIDSCHED&lt;/div&gt;&lt;div&gt;CRIDNMS&lt;/div&gt;" style="rounded=0;whiteSpace=wrap;html=1;" vertex="1" parent="1">
          <mxGeometry x="101" y="13" width="120" height="355" as="geometry" />
        </mxCell>
        <mxCell id="CB2LPCBiZO9Efgwe6hKB-4" value="COAP Kafka Request From NMS(Key : Correlation ID)." style="rounded=0;whiteSpace=wrap;html=1;" vertex="1" parent="1">
          <mxGeometry x="387" y="46" width="120" height="60" as="geometry" />
        </mxCell>
        <mxCell id="CB2LPCBiZO9Efgwe6hKB-6" value="" style="endArrow=classic;html=1;rounded=0;fontSize=12;startSize=8;endSize=8;curved=1;" edge="1" parent="1">
          <mxGeometry width="50" height="50" relative="1" as="geometry">
            <mxPoint x="383" y="76" as="sourcePoint" />
            <mxPoint x="222" y="79" as="targetPoint" />
          </mxGeometry>
        </mxCell>
        <mxCell id="CB2LPCBiZO9Efgwe6hKB-8" value="MNC" style="text;html=1;align=center;verticalAlign=middle;whiteSpace=wrap;rounded=0;" vertex="1" parent="1">
          <mxGeometry x="131" y="-26" width="60" height="30" as="geometry" />
        </mxCell>
        <mxCell id="CB2LPCBiZO9Efgwe6hKB-9" value="MNC Send Registry" style="shape=cylinder3;whiteSpace=wrap;html=1;boundedLbl=1;backgroundOutline=1;size=15;" vertex="1" parent="1">
          <mxGeometry x="128" y="261" width="60" height="80" as="geometry" />
        </mxCell>
        <mxCell id="CB2LPCBiZO9Efgwe6hKB-10" value="" style="shape=table;startSize=0;container=1;collapsible=0;childLayout=tableLayout;fontSize=16;" vertex="1" parent="1">
          <mxGeometry x="342" y="154" width="241" height="214" as="geometry" />
        </mxCell>
        <mxCell id="CB2LPCBiZO9Efgwe6hKB-11" value="" style="shape=tableRow;horizontal=0;startSize=0;swimlaneHead=0;swimlaneBody=0;strokeColor=inherit;top=0;left=0;bottom=0;right=0;collapsible=0;dropTarget=0;fillColor=none;points=[[0,0.5],[1,0.5]];portConstraint=eastwest;fontSize=16;" vertex="1" parent="CB2LPCBiZO9Efgwe6hKB-10">
          <mxGeometry width="241" height="72" as="geometry" />
        </mxCell>
        <mxCell id="CB2LPCBiZO9Efgwe6hKB-12" value="Key&lt;span style=&quot;white-space: pre;&quot;&gt;&#x9;&lt;span style=&quot;white-space: pre;&quot;&gt;&#x9;&lt;/span&gt;&lt;/span&gt;" style="shape=partialRectangle;html=1;whiteSpace=wrap;connectable=0;strokeColor=inherit;overflow=hidden;fillColor=none;top=0;left=0;bottom=0;right=0;pointerEvents=1;fontSize=16;" vertex="1" parent="CB2LPCBiZO9Efgwe6hKB-11">
          <mxGeometry width="80" height="72" as="geometry">
            <mxRectangle width="80" height="72" as="alternateBounds" />
          </mxGeometry>
        </mxCell>
        <mxCell id="CB2LPCBiZO9Efgwe6hKB-13" value="Value" style="shape=partialRectangle;html=1;whiteSpace=wrap;connectable=0;strokeColor=inherit;overflow=hidden;fillColor=none;top=0;left=0;bottom=0;right=0;pointerEvents=1;fontSize=16;" vertex="1" parent="CB2LPCBiZO9Efgwe6hKB-11">
          <mxGeometry x="80" width="79" height="72" as="geometry">
            <mxRectangle width="79" height="72" as="alternateBounds" />
          </mxGeometry>
        </mxCell>
        <mxCell id="CB2LPCBiZO9Efgwe6hKB-14" value="" style="shape=partialRectangle;html=1;whiteSpace=wrap;connectable=0;strokeColor=inherit;overflow=hidden;fillColor=none;top=0;left=0;bottom=0;right=0;pointerEvents=1;fontSize=16;" vertex="1" parent="CB2LPCBiZO9Efgwe6hKB-11">
          <mxGeometry x="159" width="82" height="72" as="geometry">
            <mxRectangle width="82" height="72" as="alternateBounds" />
          </mxGeometry>
        </mxCell>
        <mxCell id="CB2LPCBiZO9Efgwe6hKB-15" value="" style="shape=tableRow;horizontal=0;startSize=0;swimlaneHead=0;swimlaneBody=0;strokeColor=inherit;top=0;left=0;bottom=0;right=0;collapsible=0;dropTarget=0;fillColor=none;points=[[0,0.5],[1,0.5]];portConstraint=eastwest;fontSize=16;" vertex="1" parent="CB2LPCBiZO9Efgwe6hKB-10">
          <mxGeometry y="72" width="241" height="70" as="geometry" />
        </mxCell>
        <mxCell id="CB2LPCBiZO9Efgwe6hKB-16" value="Message ID + IPV6 Address" style="shape=partialRectangle;html=1;whiteSpace=wrap;connectable=0;strokeColor=inherit;overflow=hidden;fillColor=none;top=0;left=0;bottom=0;right=0;pointerEvents=1;fontSize=16;" vertex="1" parent="CB2LPCBiZO9Efgwe6hKB-15">
          <mxGeometry width="80" height="70" as="geometry">
            <mxRectangle width="80" height="70" as="alternateBounds" />
          </mxGeometry>
        </mxCell>
        <mxCell id="CB2LPCBiZO9Efgwe6hKB-17" value="COAP Kafka Request (includes CRID)" style="shape=partialRectangle;html=1;whiteSpace=wrap;connectable=0;strokeColor=inherit;overflow=hidden;fillColor=none;top=0;left=0;bottom=0;right=0;pointerEvents=1;fontSize=16;" vertex="1" parent="CB2LPCBiZO9Efgwe6hKB-15">
          <mxGeometry x="80" width="79" height="70" as="geometry">
            <mxRectangle width="79" height="70" as="alternateBounds" />
          </mxGeometry>
        </mxCell>
        <mxCell id="CB2LPCBiZO9Efgwe6hKB-18" value="" style="shape=partialRectangle;html=1;whiteSpace=wrap;connectable=0;strokeColor=inherit;overflow=hidden;fillColor=none;top=0;left=0;bottom=0;right=0;pointerEvents=1;fontSize=16;" vertex="1" parent="CB2LPCBiZO9Efgwe6hKB-15">
          <mxGeometry x="159" width="82" height="70" as="geometry">
            <mxRectangle width="82" height="70" as="alternateBounds" />
          </mxGeometry>
        </mxCell>
        <mxCell id="CB2LPCBiZO9Efgwe6hKB-19" value="" style="shape=tableRow;horizontal=0;startSize=0;swimlaneHead=0;swimlaneBody=0;strokeColor=inherit;top=0;left=0;bottom=0;right=0;collapsible=0;dropTarget=0;fillColor=none;points=[[0,0.5],[1,0.5]];portConstraint=eastwest;fontSize=16;" vertex="1" parent="CB2LPCBiZO9Efgwe6hKB-10">
          <mxGeometry y="142" width="241" height="72" as="geometry" />
        </mxCell>
        <mxCell id="CB2LPCBiZO9Efgwe6hKB-20" value="" style="shape=partialRectangle;html=1;whiteSpace=wrap;connectable=0;strokeColor=inherit;overflow=hidden;fillColor=none;top=0;left=0;bottom=0;right=0;pointerEvents=1;fontSize=16;" vertex="1" parent="CB2LPCBiZO9Efgwe6hKB-19">
          <mxGeometry width="80" height="72" as="geometry">
            <mxRectangle width="80" height="72" as="alternateBounds" />
          </mxGeometry>
        </mxCell>
        <mxCell id="CB2LPCBiZO9Efgwe6hKB-21" value="" style="shape=partialRectangle;html=1;whiteSpace=wrap;connectable=0;strokeColor=inherit;overflow=hidden;fillColor=none;top=0;left=0;bottom=0;right=0;pointerEvents=1;fontSize=16;" vertex="1" parent="CB2LPCBiZO9Efgwe6hKB-19">
          <mxGeometry x="80" width="79" height="72" as="geometry">
            <mxRectangle width="79" height="72" as="alternateBounds" />
          </mxGeometry>
        </mxCell>
        <mxCell id="CB2LPCBiZO9Efgwe6hKB-22" value="" style="shape=partialRectangle;html=1;whiteSpace=wrap;connectable=0;strokeColor=inherit;overflow=hidden;fillColor=none;top=0;left=0;bottom=0;right=0;pointerEvents=1;fontSize=16;" vertex="1" parent="CB2LPCBiZO9Efgwe6hKB-19">
          <mxGeometry x="159" width="82" height="72" as="geometry">
            <mxRectangle width="82" height="72" as="alternateBounds" />
          </mxGeometry>
        </mxCell>
        <mxCell id="CB2LPCBiZO9Efgwe6hKB-23" value="" style="endArrow=classic;startArrow=classic;html=1;rounded=0;fontSize=12;startSize=8;endSize=8;curved=1;" edge="1" parent="1">
          <mxGeometry width="50" height="50" relative="1" as="geometry">
            <mxPoint x="189" y="301" as="sourcePoint" />
            <mxPoint x="336" y="299" as="targetPoint" />
          </mxGeometry>
        </mxCell>
        <mxCell id="CB2LPCBiZO9Efgwe6hKB-25" value="NODE" style="shape=display;whiteSpace=wrap;html=1;" vertex="1" parent="1">
          <mxGeometry x="-285" y="287" width="173" height="91" as="geometry" />
        </mxCell>
        <mxCell id="CB2LPCBiZO9Efgwe6hKB-28" value="" style="endArrow=classic;html=1;rounded=0;fontSize=12;startSize=8;endSize=8;curved=1;" edge="1" parent="1">
          <mxGeometry width="50" height="50" relative="1" as="geometry">
            <mxPoint x="-114" y="349" as="sourcePoint" />
            <mxPoint x="99" y="349" as="targetPoint" />
          </mxGeometry>
        </mxCell>
        <mxCell id="CB2LPCBiZO9Efgwe6hKB-31" value="COAP Request Message" style="edgeLabel;html=1;align=center;verticalAlign=middle;resizable=0;points=[];fontSize=12;" vertex="1" connectable="0" parent="CB2LPCBiZO9Efgwe6hKB-28">
          <mxGeometry x="0.3959" y="-3" relative="1" as="geometry">
            <mxPoint x="-81" y="-71" as="offset" />
          </mxGeometry>
        </mxCell>
        <mxCell id="CB2LPCBiZO9Efgwe6hKB-29" value="" style="endArrow=classic;html=1;rounded=0;fontSize=12;startSize=8;endSize=8;curved=1;" edge="1" parent="1">
          <mxGeometry width="50" height="50" relative="1" as="geometry">
            <mxPoint x="100" y="304" as="sourcePoint" />
            <mxPoint x="-115" y="306" as="targetPoint" />
          </mxGeometry>
        </mxCell>
        <mxCell id="CB2LPCBiZO9Efgwe6hKB-30" value="COAP Response Message" style="text;html=1;align=center;verticalAlign=middle;whiteSpace=wrap;rounded=0;" vertex="1" parent="1">
          <mxGeometry x="-98" y="365" width="162" height="30" as="geometry" />
        </mxCell>
      </root>
    </mxGraphModel>
  </diagram>
</mxfile>
